# xmcd
#
# Track frame offsets:
#	180
#	13773
#	28508
#	41097
#	56133
#	69647
#	81051
#	95490
#	110819
#	123129
#	140386
#	154207
#	169931
#	182043
#	194146
#	206352
#	218703
#	234109
#
# Disc length: 3260
#
# Revision: 1
# Processed by: cddbd v1.5.1PL0 Copyright (c) Steve Scherf et al.
# Submitted via: EasyCDDAExtractor 4.6.0.1
# Normalized: r0:TDELIM( - )
#
DISCID=000cba12
DTITLE=Swing Piano Bar - 1921-1941
DYEAR=1993
DGENRE=swing
TTITLE0=Maede Lux Lewis - Honky tonk train blues
TTITLE1=Teddy Wilson - Body and soul
TTITLE2=James P. Johnson - Carolina shout
TTITLE3=Herman Chittison - The man I love
TTITLE4=Eats Waller - Georgia on my mind
TTITLE5=Earl Hines - My melancholy baby
TTITLE6=Fats Waller - Stardust
TTITLE7=Herman Chittison - Flamingo
TTITLE8=Willie Smith - Echoes of spring
TTITLE9=Art Tatum - Over the rainbow
TTITLE10=Fats Waller - Tea for two
TTITLE11=Duke Ellington - Solitude
TTITLE12=Earl Hines - On the sunny side of the street
TTITLE13=Willie Smith - Stormy weather
TTITLE14=Donald Lamber - Anitra's Dance
TTITLE15=Joe Turner - Cheek to cheek
TTITLE16=Herman Chittison - St Louis blues
TTITLE17=Art Tatum - Tiger rag
EXTD=
EXTT0=
EXTT1=
EXTT2=
EXTT3=
EXTT4=
EXTT5=
EXTT6=
EXTT7=
EXTT8=
EXTT9=
EXTT10=
EXTT11=
EXTT12=
EXTT13=
EXTT14=
EXTT15=
EXTT16=
EXTT17=
PLAYORDER=
